<svg width="104" height="60" viewBox="0 0 104 60" fill="none" xmlns="http://www.w3.org/2000/svg">
<path fill-rule="evenodd" clip-rule="evenodd" d="M45.877 0.083951C39.6336 0.604571 30.0559 2.67495 23.8142 4.85307C19.6663 6.30064 15.371 8.27154 12.3686 10.1052C6.08022 13.9455 1.93846 18.8442 0.606737 24.0161C-0.00183266 26.3795 -0.209483 31.9634 0.248087 33.6619C0.953437 36.2804 2.52982 38.48 5.04908 40.3611C6.27107 41.2736 8.7748 42.5612 9.0912 42.4398C9.6202 42.2369 14.858 38.6066 14.7531 38.5156C14.6878 38.4588 14.1219 38.2646 13.4957 38.0839C12.8695 37.9033 11.6556 37.474 10.7982 37.13C6.25926 35.309 3.42816 32.8374 2.17984 29.6055C1.73907 28.4645 1.69167 26.3059 2.09103 25.5577C2.48982 24.8104 5.61496 21.7776 7.2392 20.5617C11.271 17.5433 16.2629 15.0725 22.6044 12.9561C31.9664 9.8318 42.8348 7.96995 55.4696 7.32622C59.5802 7.11687 68.0803 7.23457 71.5637 7.54925C78.194 8.14814 85.451 9.5877 87.8103 10.772C90.0185 11.8804 93.4823 15.0067 95.0902 17.3424C98.18 21.8304 98.847 26.5538 97.155 31.9623C96.7092 33.3868 94.5704 37.6749 93.2625 39.7657C89.8663 45.1949 85.3168 49.5075 78.7835 53.4907C77.7445 54.124 76.9439 54.6909 77.0044 54.7503C77.1731 54.9161 79.1 54.5344 80.5491 54.048C86.5576 52.0322 94.1147 47.0056 98.267 42.2634C103.73 36.0242 105.217 30.0677 102.811 24.0599C100.375 17.975 93.0813 11.8898 82.7151 7.29292C74.3942 3.60319 65.6323 1.19279 57.2602 0.290321C54.8364 0.029011 48.0181 -0.094521 45.877 0.083951ZM63.9262 13.5986C59.1775 15.2317 55.1427 16.6468 54.9598 16.7431C54.7769 16.8393 48.325 20.4729 40.6223 24.8179L26.6174 32.7179L25.7495 32.4277C25.2721 32.268 23.0187 31.5003 20.742 30.7216L16.6025 29.3058L14.4086 30.8551C13.2019 31.7074 12.2148 32.4707 12.2148 32.5514C12.2148 32.632 13.5243 33.7974 15.125 35.1411C16.7256 36.4847 18.0385 37.6397 18.0426 37.7076C18.0466 37.7755 16.4667 38.8358 14.5315 40.0638C12.5964 41.2917 10.9686 42.3409 10.9141 42.3953C10.8597 42.4497 13.6295 42.4942 17.069 42.4942H23.3227L31.2895 37.3519C44.2682 28.9748 66.7956 14.4962 69.7846 12.6107C72.6256 10.8187 72.9338 10.6079 72.6952 10.6214C72.6209 10.6256 68.6748 11.9653 63.9262 13.5986ZM40.192 32.952L36.7277 35.0803L35.0388 38.8119C34.1098 40.8643 33.3498 42.5645 33.3498 42.5901C33.3498 42.6156 34.4545 42.635 35.8049 42.633L38.26 42.6293L39.3128 40.2846C40.4945 37.6528 40.315 37.8075 41.9279 38.0287L42.5757 38.1175L42.3181 38.7047C42.1763 39.0276 41.7041 40.0445 41.2686 40.9642L40.4767 42.6365L42.8553 42.6333L45.2338 42.63L47.4286 37.7587C48.6357 35.0794 49.835 32.4231 50.0936 31.8555L50.5639 30.8237H47.1101H43.6565L40.192 32.952ZM74.8435 31.5709C74.6601 31.9818 73.5044 34.5277 72.2753 37.2282C71.0463 39.9288 70.0077 42.2506 69.9672 42.3875C69.8992 42.6179 70.0788 42.6365 72.3754 42.6365H74.8569L76.0392 40.0036L77.2216 37.3706H78.1286C78.8569 37.3706 79.0357 37.4145 79.0357 37.5934C79.0357 37.9024 78.2022 39.6756 77.3285 41.2257C76.9263 41.939 76.6237 42.5493 76.6562 42.5816C76.6885 42.6139 77.8508 42.6556 79.2392 42.6741L81.7636 42.7077L82.1073 42.2807C82.9927 41.181 84.0914 38.4283 83.9919 37.5594C83.9535 37.2235 83.7853 37.0727 82.9743 36.6464L82.0028 36.1359L82.9414 35.9042C84.012 35.6401 84.9278 35.0661 85.5677 34.2581C86.034 33.6694 86.9279 31.8763 87.0865 31.2119L87.1805 30.8173L84.5177 30.8561L81.8548 30.8948L81.2514 32.3892C80.5511 34.1233 79.9202 35.4045 79.6931 35.5538C79.5025 35.6789 78.8 35.691 78.3736 35.5766C78.079 35.4976 78.1026 35.4173 78.9911 33.4793C79.4994 32.371 79.9719 31.3201 80.0412 31.1439L80.1671 30.8237H77.6722H75.1773L74.8435 31.5709ZM44.4624 33.9904C44.3178 34.323 43.9714 35.0917 43.6929 35.6983L43.1864 36.8013H41.6534C40.3177 36.8013 40.1472 36.7749 40.3288 36.5963C40.5157 36.4126 44.6208 33.3969 44.695 33.3888C44.7118 33.3869 44.6072 33.6578 44.4624 33.9904ZM56.1566 39.3275C55.442 40.8736 54.8146 42.2506 54.7625 42.3875C54.6776 42.6109 54.7773 42.6365 55.7312 42.6365H56.7945L58.3979 40.9234C59.2797 39.9811 60.0281 39.237 60.061 39.2699C60.0937 39.3027 59.7685 40.0763 59.338 40.989L58.5553 42.6482L59.6269 42.6068L60.6984 42.5654L61.9681 39.6785C62.6665 38.0907 63.2378 36.7297 63.2378 36.6541C63.2378 36.5785 62.8439 36.5166 62.3625 36.5166H61.4872L60.0497 37.8247C59.2591 38.5442 58.4658 39.262 58.2869 39.4199L57.9615 39.7069L58.1964 39.1436C58.3256 38.8338 58.5872 38.272 58.7776 37.8955C59.5063 36.4549 59.5223 36.5166 58.422 36.5166H57.456L56.1566 39.3275ZM48.6926 39.4018C48.0117 40.9069 47.4124 42.2506 47.3609 42.3875C47.2733 42.6197 47.4672 42.6364 50.2355 42.6348L53.2039 42.633L53.5891 41.6741C53.8009 41.1467 54.0151 40.605 54.0651 40.4702C54.1333 40.2873 54.0284 40.1645 53.6507 39.9843C53.3725 39.8517 53.1743 39.6957 53.2102 39.6376C53.2461 39.5796 53.5886 39.4891 53.9715 39.4364L54.6677 39.3406L55.1956 38.1777C55.486 37.5381 55.756 36.9348 55.7955 36.8369C55.8516 36.6978 55.2181 36.6597 52.8989 36.6621L49.9305 36.6652L48.6926 39.4018ZM65.2785 37.6724L63.9748 38.6673L63.1628 40.4701C62.7161 41.4615 62.3192 42.3546 62.2808 42.4546C62.2281 42.5921 62.4666 42.6365 63.2581 42.6364L64.3052 42.6362L64.7851 41.569L65.2649 40.5017H66.0269C66.7779 40.5017 66.7869 40.5067 66.6554 40.8527C66.5819 41.0456 66.3914 41.4594 66.232 41.7721C66.0724 42.0847 65.9419 42.41 65.9419 42.4948C65.9419 42.595 66.2973 42.6344 66.9575 42.6072L67.973 42.5654L69.2085 39.854C69.8881 38.3627 70.4859 37.0338 70.5368 36.9008C70.6216 36.68 70.4538 36.6598 68.6061 36.6682L66.5824 36.6775L65.2785 37.6724ZM67.8836 38.1178C67.2168 39.684 67.2541 39.6477 66.3141 39.6477C65.7882 39.6477 65.5101 39.5971 65.5932 39.5164C65.7858 39.3294 67.9835 37.6552 68.0365 37.6552C68.0608 37.6552 67.9919 37.8633 67.8836 38.1178ZM52.8444 38.4475C52.5094 39.3291 52.4616 39.3631 51.5622 39.3631C51.0953 39.3631 50.7133 39.3285 50.7133 39.2862C50.7133 39.244 50.8427 38.9558 51.0008 38.6458C51.2871 38.0845 51.2918 38.0822 52.136 38.0822H52.9833L52.8444 38.4475ZM51.8519 40.644C51.562 41.2123 51.56 41.2133 50.7104 41.2133C50.2423 41.2133 49.8593 41.1834 49.8593 41.147C49.8593 41.1105 49.9672 40.8544 50.0992 40.5777C50.3364 40.0801 50.3487 40.0747 51.2407 40.0747H52.1424L51.8519 40.644ZM29.3447 46.9418C29.2499 47.118 28.134 49.5516 26.8649 52.3501L24.5572 57.4382H26.361H28.1647L29.6387 54.161C30.4494 52.3587 31.126 50.9017 31.1422 50.9232C31.1731 50.9645 30.9965 54.6395 30.8787 56.4063L30.8099 57.4382H32.2747H33.7394L36.7112 53.5426C38.3458 51.4 39.6983 49.6592 39.7167 49.674C39.735 49.6888 38.9826 51.3916 38.0444 53.4578C37.1062 55.5241 36.3386 57.267 36.3386 57.3307C36.3386 57.3946 37.1093 57.4289 38.0512 57.407L39.7638 57.367L42.0412 52.3145C43.2938 49.5357 44.3554 47.118 44.4002 46.9418L44.4819 46.6216H41.7799H39.0781L36.6973 49.5748C35.3879 51.1991 34.2745 52.5442 34.223 52.5642C34.1355 52.5979 34.2095 50.7542 34.4116 47.8669L34.4987 46.6216H32.0079C29.5709 46.6216 29.5134 46.6286 29.3447 46.9418ZM44.6204 51.9943L42.1877 57.367L47.6603 57.4043C51.3764 57.4295 53.1328 57.4897 53.1328 57.5915C53.1328 57.674 52.9086 58.2267 52.6347 58.8196C52.3607 59.4126 52.1365 59.9207 52.1365 59.9489C52.1365 59.9769 52.9274 60 53.8941 60H55.6516L56.7405 57.6006C57.3394 56.2808 57.8295 55.1631 57.8295 55.1166C57.8295 55.0702 57.4584 55.0131 57.0048 54.9899L56.1802 54.9475L57.9944 50.9625C58.9921 48.7707 59.8116 46.8956 59.8153 46.7957C59.8204 46.6545 59.3704 46.6226 57.8067 46.6533L55.7912 46.6928L54.0256 50.6067C53.0544 52.7593 52.2112 54.5702 52.1518 54.631C52.0923 54.6918 51.0419 54.7238 49.8174 54.7022L47.5911 54.6629L49.3658 50.7501C50.3417 48.598 51.1403 46.7887 51.1403 46.7295C51.1403 46.6701 50.2207 46.6216 49.0968 46.6216H47.0532L44.6204 51.9943ZM63.1155 46.8707C63.0002 47.0878 59.5073 54.7823 58.5932 56.8333L58.26 57.5805H60.4721H62.6841L63.0416 56.7621C64.3036 53.8731 64.8595 52.7415 65.0167 52.7415C65.3654 52.7415 65.5666 53.61 65.5515 55.0487C65.5434 55.8255 65.4942 56.7129 65.4422 57.0207L65.3476 57.5805H67.7629C70.5479 57.5805 70.3485 57.702 70.3519 56.0021C70.3545 54.8157 69.7826 53.5838 68.8473 52.7606L68.2128 52.202L69.1146 51.78C69.6286 51.5394 70.4103 50.9902 70.9323 50.5028C72.0819 49.4295 72.8608 48.8988 73.2864 48.8988C73.7384 48.8988 73.912 48.5062 73.912 47.4849V46.6216H72.2164H70.5207L70.063 47.3688C69.4429 48.3813 67.8584 50.4017 67.4726 50.672C67.2951 50.7962 66.8607 50.8913 66.4699 50.8913C65.8205 50.8913 65.7862 50.8727 65.8791 50.5711C65.9335 50.3949 66.06 50.0892 66.1605 49.8915C66.2608 49.6939 66.6333 48.8773 66.9883 48.0769L67.6336 46.6216H65.4406C63.4975 46.6216 63.2328 46.6499 63.1155 46.8707ZM18.9073 52.2078C18.8748 52.3057 18.7126 52.866 18.5468 53.4531C18.3808 54.0402 18.2126 54.634 18.1727 54.7725C18.1047 55.0087 18.2887 55.0219 21.1281 54.9859L24.156 54.9475L24.5512 53.5954C24.7687 52.8518 24.9479 52.1954 24.9496 52.1366C24.9513 52.0779 23.6058 52.0299 21.9595 52.0299C19.6912 52.0299 18.952 52.073 18.9073 52.2078Z" fill="#F2F5FF"/>
</svg>
