<svg width="27" height="18" viewBox="0 0 27 18" fill="none" xmlns="http://www.w3.org/2000/svg">
<path d="M8.48655 0C8.01678 -2.56144e-06 7.55252 0.101128 7.12531 0.29652C6.6981 0.491912 6.31796 0.776985 6.01073 1.13236L0.610729 7.38C0.231093 7.812 0.000366211 8.37818 0.000366211 9V13.9091C0.000366211 14.9941 0.431371 16.0346 1.19857 16.8018C1.96576 17.569 3.0063 18 4.09128 18H7.36401C8.44898 18 9.48952 17.569 10.2567 16.8018C11.0239 16.0346 11.4549 14.9941 11.4549 13.9091V11.4545H14.7277V13.9091C14.7277 14.9941 15.1587 16.0346 15.9259 16.8018C16.6931 17.569 17.7336 18 18.8186 18H22.0913C23.1763 18 24.2168 17.569 24.984 16.8018C25.7512 16.0346 26.1822 14.9941 26.1822 13.9091V9C26.1822 8.298 25.8877 7.66636 25.4164 7.21964L20.1719 1.13564C19.8647 0.779451 19.4845 0.49364 19.057 0.297668C18.6294 0.101696 18.1647 0.00016835 17.6944 0H16.364C16.147 0 15.9389 0.0862012 15.7855 0.23964C15.6321 0.393079 15.5459 0.601187 15.5459 0.818182C15.5459 1.03518 15.6321 1.24328 15.7855 1.39672C15.9389 1.55016 16.147 1.63636 16.364 1.63636H17.6944C17.9295 1.63645 18.1619 1.68721 18.3757 1.7852C18.5894 1.88318 18.7796 2.02609 18.9331 2.20418L22.6755 6.54545H17.1822C16.5312 6.54545 15.9069 6.80406 15.4466 7.26437C14.9863 7.72469 14.7277 8.34901 14.7277 9V9.81818H11.4549V9C11.4549 8.34901 11.1963 7.72469 10.736 7.26437C10.2757 6.80406 9.65136 6.54545 9.00037 6.54545H3.49564L7.24946 2.20255C7.40299 2.02496 7.59292 1.88249 7.80638 1.78479C8.01983 1.6871 8.2518 1.63648 8.48655 1.63636H9.81855C10.0356 1.63636 10.2437 1.55016 10.3971 1.39672C10.5506 1.24328 10.6368 1.03518 10.6368 0.818182C10.6368 0.601187 10.5506 0.393079 10.3971 0.23964C10.2437 0.0862012 10.0356 0 9.81855 0H8.48655Z" fill="#6197FF"/>
</svg>
